<svg width="1920" height="1080" viewBox="0 0 1920 1080" fill="none" xmlns="http://www.w3.org/2000/svg">
<g clip-path="url(#clip0_124_44)">
<rect width="1920" height="1080" fill="#121112"/>
<path d="M1798.06 733.677C1776.52 761.889 1749.53 785.314 1718.62 802.621C1687.72 819.924 1653.5 830.769 1617.93 834.532C1582.36 838.3 1546.12 834.908 1511.3 824.562C1476.47 814.213 1443.74 797.103 1414.97 774.217L1442.63 737.975C1466.55 757.003 1493.76 771.225 1522.71 779.825C1551.66 788.429 1581.78 791.248 1611.35 788.117C1640.93 784.987 1669.37 775.972 1695.06 761.587C1720.75 747.202 1743.19 727.729 1761.09 704.274L1798.06 733.677Z" fill="#A92B2B"/>
<path d="M1379.38 747.262C1352.69 722.028 1330.98 691.873 1315.49 658.528C1300 625.184 1291.04 589.302 1289.12 552.929C1287.2 516.554 1292.35 480.402 1304.29 446.536C1316.22 412.67 1334.71 381.753 1358.68 355.55L1392.97 387.973C1373.04 409.755 1357.68 435.456 1347.76 463.609C1337.83 491.762 1333.55 521.815 1335.15 552.052C1336.74 582.29 1344.19 612.119 1357.07 639.841C1369.94 667.558 1387.99 692.625 1410.18 713.606L1379.38 747.262Z" fill="#681D1D"/>
<path d="M1393.63 326.68C1419.88 302.691 1450.68 284.331 1484.28 272.647C1517.87 260.962 1553.6 256.183 1589.43 258.583C1625.25 260.982 1660.47 270.512 1693.08 286.63C1725.68 302.747 1755.03 325.136 1779.44 352.517L1745.71 383.334C1725.42 360.572 1701.03 341.96 1673.92 328.562C1646.82 315.164 1617.54 307.241 1587.76 305.247C1557.98 303.252 1528.28 307.225 1500.35 316.938C1472.42 326.651 1446.82 341.914 1424.99 361.856L1393.63 326.68Z" fill="#B93737"/>
<path d="M554 -14.5C554 42.6907 542.36 99.3213 519.746 152.159C497.131 204.996 463.984 253.005 422.198 293.445C380.412 333.885 330.804 365.964 276.208 387.85C221.611 409.735 163.095 421 104 421C44.9051 421 -13.6111 409.735 -68.2076 387.85C-122.804 365.964 -172.412 333.885 -214.198 293.445C-255.984 253.005 -289.131 204.996 -311.746 152.159C-334.36 99.3213 -346 42.6906 -346 -14.5L104 -14.5L554 -14.5Z" fill="#B93737"/>
<path d="M1252 0C1252 147.08 1223.03 292.721 1166.75 428.605C1110.46 564.49 1027.96 687.958 923.96 791.96C819.958 895.961 696.49 978.46 560.605 1034.75C424.721 1091.03 279.08 1120 132 1120C-15.0805 1120 -160.721 1091.03 -296.606 1034.75C-432.49 978.46 -555.958 895.961 -659.96 791.96C-763.961 687.958 -846.46 564.49 -902.745 428.605C-959.03 292.721 -988 147.08 -988 -9.79135e-05L132 0H1252Z" fill="#B93737" fill-opacity="0.25"/>
<path d="M619.282 -487.898C753.001 -349.429 826.979 -164.228 824.943 26.961C822.906 218.15 745.022 399.666 608.423 531.578C471.824 663.491 287.7 734.993 96.5561 730.356C-94.5875 725.719 -277.093 645.322 -410.812 506.852L-155.255 260.063C-87.8849 329.827 4.06471 370.332 100.366 372.668C196.668 375.005 289.432 338.98 358.253 272.521C427.074 206.061 466.314 114.61 467.34 18.2857C468.366 -78.0386 431.095 -171.346 363.725 -241.109L619.282 -487.898Z" fill="#B93737" fill-opacity="0.75"/>
</g>
<defs>
<clipPath id="clip0_124_44">
<rect width="1920" height="1080" fill="white"/>
</clipPath>
</defs>
</svg>
