<svg width="179" height="182" viewBox="0 0 179 182" fill="none" xmlns="http://www.w3.org/2000/svg">
<g id="Group 1">
<path id="Ellipse 3" d="M134.261 130.166C129.978 135.871 124.61 140.608 118.463 144.108C112.317 147.607 105.511 149.8 98.4362 150.561C91.3611 151.323 84.1547 150.637 77.2284 148.545C70.3022 146.452 63.7917 142.992 58.0688 138.364L63.5706 131.035C68.3281 134.883 73.7402 137.759 79.498 139.498C85.2558 141.238 91.2465 141.808 97.128 141.175C103.01 140.542 108.667 138.719 113.777 135.81C118.886 132.901 123.349 128.963 126.909 124.22L134.261 130.166Z" fill="#A92B90"/>
<path id="Ellipse 5" d="M50.9909 132.913C45.6819 127.81 41.3641 121.712 38.284 114.969C35.204 108.226 33.4219 100.97 33.0397 93.6144C32.6574 86.2587 33.6824 78.948 36.0562 72.0995C38.43 65.251 42.106 58.999 46.8744 53.7002L53.6945 60.2567C49.7306 64.6615 46.6747 69.8589 44.7014 75.552C42.7281 81.2451 41.876 87.3225 42.1938 93.4372C42.5115 99.552 43.9929 105.584 46.5534 111.19C49.1139 116.795 52.7032 121.864 57.1166 126.107L50.9909 132.913Z" fill="#681D59"/>
<path id="Ellipse 4" d="M53.8251 47.862C59.046 43.0109 65.1722 39.298 71.8539 36.9352C78.5356 34.5724 85.642 33.606 92.7674 34.0912C99.8927 34.5764 106.897 36.5036 113.382 39.7629C119.866 43.0222 125.703 47.5497 130.558 53.0868L123.851 59.3187C119.815 54.7156 114.963 50.952 109.572 48.2425C104.182 45.5331 98.3591 43.931 92.4358 43.5277C86.5125 43.1243 80.605 43.9277 75.0505 45.8919C69.496 47.8561 64.4033 50.9426 60.0632 54.9753L53.8251 47.862Z" fill="#B9379F"/>
</g>
</svg>
