<svg width="511" height="580" viewBox="0 0 511 580" fill="none" xmlns="http://www.w3.org/2000/svg">
<path d="M510.055 476.677C488.521 504.889 461.531 528.314 430.624 545.621C399.722 562.924 365.502 573.769 329.931 577.532C294.357 581.3 258.124 577.908 223.299 567.562C188.475 557.213 155.74 540.103 126.966 517.217L154.629 480.975C178.549 500.003 205.761 514.225 234.711 522.825C263.66 531.429 293.781 534.248 323.353 531.117C352.927 527.987 381.37 518.972 407.063 504.587C432.751 490.202 455.19 470.729 473.09 447.274L510.055 476.677Z" fill="#A92B2B"/>
<path d="M91.3787 490.262C64.6854 465.028 42.9759 434.873 27.4893 401.528C12.0033 368.184 3.04302 332.302 1.12134 295.929C-0.800837 259.554 4.35278 223.402 16.2881 189.536C28.2234 155.67 46.7061 124.753 70.6813 98.5504L104.972 130.973C85.042 152.755 69.6772 178.456 59.7556 206.609C49.834 234.762 45.5497 264.815 47.1475 295.052C48.7449 325.29 56.1933 355.119 69.0673 382.841C81.9413 410.558 99.9881 435.625 122.178 456.606L91.3787 490.262Z" fill="#681D1D"/>
<path d="M105.629 69.6801C131.879 45.6912 162.681 27.3307 196.277 15.6465C229.872 3.96238 265.602 -0.816514 301.428 1.58283C337.254 3.98216 372.471 13.5123 405.077 29.6297C437.678 45.7471 467.026 68.1358 491.437 95.517L457.714 126.334C437.422 103.572 413.026 84.9604 385.92 71.5617C358.82 58.1636 329.543 50.2411 299.761 48.2468C269.979 46.252 240.276 50.2248 212.349 59.9379C184.421 69.651 158.815 84.9139 136.994 104.856L105.629 69.6801Z" fill="#B93737"/>
</svg>
